ffmpeg started on 2026-01-19 at 12:04:59
Report written to "D:\Convert\FFMetrics\reports\ssim_report-6.txt"
Log level: 32
Command line:
ffmpeg -hide_banner -nostdin -r 24000/1001 -i "F:\\Convert\\files\\[DC] Make Heroine ga Oosugiru - 07_Telegram_HEVC(172).mkv" -r 24000/1001 -i "F:\\Convert\\files\\[DC] Make Heroine ga Oosugiru - 07_Telegram.mp4" -lavfi "[0:v]settb=AVTB,setpts=PTS-STARTPTS,format=pix_fmts=yuv420p10le,fps=24000/1001,scale=1920:1080:flags=lanczos:param0=3:out_range=limited:out_color_matrix=bt709:out_chroma_loc=left,setsar=1/1,setdar=(1920/1080)*(1/1),colorspace=format=yuv420p10:range=tv:primaries=bt709:trc=bt709:space=bt709:fast=0[main];[1:v]settb=AVTB,setpts=PTS-STARTPTS,format=pix_fmts=yuv420p,fps=24000/1001,scale=1920:1080:flags=lanczos:param0=3:out_range=limited:out_color_matrix=bt709:out_chroma_loc=left,setsar=1.000,setdar=1.778,colorspace=format=yuv420p:range=tv:primaries=bt709:trc=bt709:space=bt709:fast=0[ref];[main][ref]ssim=eof_action=endall:stats_file='D\\:/Convert/FFMetrics/logs/ssim_logfile-6.txt'" -f null -
Input #0, matroska,webm, from 'F:\Convert\files\[DC] Make Heroine ga Oosugiru - 07_Telegram_HEVC(172).mkv':
  Metadata:
    COMPATIBLE_BRANDS: isomiso2avc1mp41
    MAJOR_BRAND     : isom
    MINOR_VERSION   : 512
    ENCODER         : Lavf61.7.100
  Duration: 00:24:06.79, start: -0.021000, bitrate: 1197 kb/s
  Stream #0:0: Video: hevc (Main 10), yuv420p10le(tv, bt709, progressive), 1920x1080 [SAR 1:1 DAR 16:9], 23.98 fps, 23.98 tbr, 1k tbn (default)
      Metadata:
        HANDLER_NAME    : VideoHandler
        VENDOR_ID       : [0][0][0][0]
        ENCODER         : Lavc61.19.100 libx265
        BPS             : 1000375
        DURATION        : 00:24:06.569708333
        NUMBER_OF_FRAMES: 34683
        NUMBER_OF_BYTES : 180888990
        _STATISTICS_WRITING_APP: mkvpropedit v94.0 ('Initiate') 64-bit
        _STATISTICS_WRITING_DATE_UTC: 2026-01-19 07:15:50
        _STATISTICS_TAGS: BPS DURATION NUMBER_OF_FRAMES NUMBER_OF_BYTES
  Stream #0:1: Audio: aac (LC), 48000 Hz, stereo, fltp (default)
      Metadata:
        HANDLER_NAME    : SoundHandler
        VENDOR_ID       : [0][0][0][0]
        ENCODER         : Lavc61.19.100 aac
        BPS             : 193194
        DURATION        : 00:24:06.784000000
        NUMBER_OF_FRAMES: 67819
        NUMBER_OF_BYTES : 34938755
        _STATISTICS_WRITING_APP: mkvpropedit v94.0 ('Initiate') 64-bit
        _STATISTICS_WRITING_DATE_UTC: 2026-01-19 07:15:50
        _STATISTICS_TAGS: BPS DURATION NUMBER_OF_FRAMES NUMBER_OF_BYTES
Input #1, mov,mp4,m4a,3gp,3g2,mj2, from 'F:\Convert\files\[DC] Make Heroine ga Oosugiru - 07_Telegram.mp4':
  Metadata:
    major_brand     : isom
    minor_version   : 512
    compatible_brands: isomiso2avc1mp41
    encoder         : Lavf60.16.100
  Duration: 00:24:06.74, start: 0.000000, bitrate: 3764 kb/s
  Stream #1:0[0x1](und): Video: h264 (High) (avc1 / 0x31637661), yuv420p(tv, bt709, progressive), 1920x1080 [SAR 1:1 DAR 16:9], 3616 kb/s, 23.98 fps, 23.98 tbr, 24k tbn (default)
      Metadata:
        handler_name    : VideoHandler
        vendor_id       : [0][0][0][0]
        encoder         : Lavc60.31.102 h264_qsv
  Stream #1:1[0x2](und): Audio: aac (HE-AACv2) (mp4a / 0x6134706D), 48000 Hz, stereo, fltp, 144 kb/s (default)
      Metadata:
        handler_name    : SoundHandler
        vendor_id       : [0][0][0][0]
Stream mapping:
  Stream #0:0 (hevc) -> settb:default
  Stream #1:0 (h264) -> settb:default
  ssim:default -> Stream #0:0 (wrapped_avframe)
  Stream #0:1 -> #0:1 (aac (native) -> pcm_s16le (native))
Output #0, null, to 'pipe:':
  Metadata:
    COMPATIBLE_BRANDS: isomiso2avc1mp41
    MAJOR_BRAND     : isom
    MINOR_VERSION   : 512
    encoder         : Lavf61.7.100
  Stream #0:0: Video: wrapped_avframe, yuv420p10le(tv, bt709, progressive), 1920x1080 [SAR 1:1 DAR 16:9], q=2-31, 200 kb/s, 23.98 fps, 23.98 tbn
      Metadata:
        encoder         : Lavc61.19.100 wrapped_avframe
  Stream #0:1: Audio: pcm_s16le, 48000 Hz, stereo, s16, 1536 kb/s (default)
      Metadata:
        HANDLER_NAME    : SoundHandler
        VENDOR_ID       : [0][0][0][0]
        _STATISTICS_TAGS: BPS DURATION NUMBER_OF_FRAMES NUMBER_OF_BYTES
        BPS             : 193194
        DURATION        : 00:24:06.784000000
        NUMBER_OF_FRAMES: 67819
        NUMBER_OF_BYTES : 34938755
        _STATISTICS_WRITING_APP: mkvpropedit v94.0 ('Initiate') 64-bit
        _STATISTICS_WRITING_DATE_UTC: 2026-01-19 07:15:50
        encoder         : Lavc61.19.100 pcm_s16le
frame=  130 fps=0.0 q=-0.0 size=N/A time=00:00:05.42 bitrate=N/A speed=10.8x    frame=  302 fps=295 q=-0.0 size=N/A time=00:00:12.59 bitrate=N/A speed=12.3x    frame=  495 fps=320 q=-0.0 size=N/A time=00:00:20.64 bitrate=N/A speed=13.3x    frame=  674 fps=327 q=-0.0 size=N/A time=00:00:28.11 bitrate=N/A speed=13.7x    frame=  851 fps=331 q=-0.0 size=N/A time=00:00:35.49 bitrate=N/A speed=13.8x    frame=  999 fps=323 q=-0.0 size=N/A time=00:00:41.66 bitrate=N/A speed=13.5x    frame= 1163 fps=321 q=-0.0 size=N/A time=00:00:48.50 bitrate=N/A speed=13.4x    frame= 1330 fps=322 q=-0.0 size=N/A time=00:00:55.47 bitrate=N/A speed=13.4x    frame= 1496 fps=322 q=-0.0 size=N/A time=00:01:02.39 bitrate=N/A speed=13.4x    frame= 1643 fps=318 q=-0.0 size=N/A time=00:01:08.52 bitrate=N/A speed=13.3x    frame= 1809 fps=319 q=-0.0 size=N/A time=00:01:15.45 bitrate=N/A speed=13.3x    frame= 1972 fps=318 q=-0.0 size=N/A time=00:01:22.24 bitrate=N/A speed=13.3x    frame= 2095 fps=312 q=-0.0 size=N/A time=00:01:27.37 bitrate=N/A speed=  13x    frame= 2246 fps=311 q=-0.0 size=N/A time=00:01:33.67 bitrate=N/A speed=  13x    frame= 2403 fps=310 q=-0.0 size=N/A time=00:01:40.22 bitrate=N/A speed=12.9x    frame= 2534 fps=307 q=-0.0 size=N/A time=00:01:45.68 bitrate=N/A speed=12.8x    frame= 2683 fps=306 q=-0.0 size=N/A time=00:01:51.90 bitrate=N/A speed=12.8x    frame= 2859 fps=308 q=-0.0 size=N/A time=00:01:59.24 bitrate=N/A speed=12.8x    frame= 3031 fps=309 q=-0.0 size=N/A time=00:02:06.41 bitrate=N/A speed=12.9x    frame= 3210 fps=311 q=-0.0 size=N/A time=00:02:13.88 bitrate=N/A speed=  13x    frame= 3394 fps=313 q=-0.0 size=N/A time=00:02:21.55 bitrate=N/A speed=13.1x    frame= 3582 fps=315 q=-0.0 size=N/A time=00:02:29.39 bitrate=N/A speed=13.2x    frame= 3762 fps=317 q=-0.0 size=N/A time=00:02:36.90 bitrate=N/A speed=13.2x    frame= 3951 fps=319 q=-0.0 size=N/A time=00:02:44.78 bitrate=N/A speed=13.3x    frame= 4134 fps=320 q=-0.0 size=N/A time=00:02:52.42 bitrate=N/A speed=13.4x    frame= 4317 fps=322 q=-0.0 size=N/A time=00:03:00.05 bitrate=N/A speed=13.4x    frame= 4493 fps=323 q=-0.0 size=N/A time=00:03:07.39 bitrate=N/A speed=13.5x    frame= 4684 fps=324 q=-0.0 size=N/A time=00:03:15.36 bitrate=N/A speed=13.5x    frame= 4855 fps=325 q=-0.0 size=N/A time=00:03:22.49 bitrate=N/A speed=13.5x    frame= 5030 fps=325 q=-0.0 size=N/A time=00:03:29.79 bitrate=N/A speed=13.6x    frame= 5204 fps=325 q=-0.0 size=N/A time=00:03:37.05 bitrate=N/A speed=13.6x    frame= 5391 fps=327 q=-0.0 size=N/A time=00:03:44.84 bitrate=N/A speed=13.6x    frame= 5573 fps=327 q=-0.0 size=N/A time=00:03:52.44 bitrate=N/A speed=13.7x    frame= 5755 fps=328 q=-0.0 size=N/A time=00:04:00.03 bitrate=N/A speed=13.7x    frame= 5938 fps=329 q=-0.0 size=N/A time=00:04:07.66 bitrate=N/A speed=13.7x    frame= 6123 fps=330 q=-0.0 size=N/A time=00:04:15.38 bitrate=N/A speed=13.8x    frame= 6308 fps=331 q=-0.0 size=N/A time=00:04:23.09 bitrate=N/A speed=13.8x    frame= 6491 fps=331 q=-0.0 size=N/A time=00:04:30.72 bitrate=N/A speed=13.8x    frame= 6676 fps=332 q=-0.0 size=N/A time=00:04:38.44 bitrate=N/A speed=13.8x    frame= 6858 fps=332 q=-0.0 size=N/A time=00:04:46.03 bitrate=N/A speed=13.9x    frame= 7040 fps=333 q=-0.0 size=N/A time=00:04:53.62 bitrate=N/A speed=13.9x    frame= 7226 fps=333 q=-0.0 size=N/A time=00:05:01.38 bitrate=N/A speed=13.9x    frame= 7412 fps=334 q=-0.0 size=N/A time=00:05:09.14 bitrate=N/A speed=13.9x    frame= 7590 fps=334 q=-0.0 size=N/A time=00:05:16.56 bitrate=N/A speed=  14x    frame= 7774 fps=335 q=-0.0 size=N/A time=00:05:24.24 bitrate=N/A speed=  14x    frame= 7954 fps=335 q=-0.0 size=N/A time=00:05:31.74 bitrate=N/A speed=  14x    frame= 8135 fps=336 q=-0.0 size=N/A time=00:05:39.29 bitrate=N/A speed=  14x    frame= 8318 fps=336 q=-0.0 size=N/A time=00:05:46.92 bitrate=N/A speed=  14x    frame= 8498 fps=336 q=-0.0 size=N/A time=00:05:54.43 bitrate=N/A speed=  14x    frame= 8690 fps=337 q=-0.0 size=N/A time=00:06:02.44 bitrate=N/A speed=14.1x    frame= 8867 fps=337 q=-0.0 size=N/A time=00:06:09.82 bitrate=N/A speed=14.1x    frame= 9052 fps=338 q=-0.0 size=N/A time=00:06:17.54 bitrate=N/A speed=14.1x    frame= 9240 fps=338 q=-0.0 size=N/A time=00:06:25.38 bitrate=N/A speed=14.1x    frame= 9417 fps=338 q=-0.0 size=N/A time=00:06:32.76 bitrate=N/A speed=14.1x    frame= 9604 fps=339 q=-0.0 size=N/A time=00:06:40.56 bitrate=N/A speed=14.1x    frame= 9791 fps=339 q=-0.0 size=N/A time=00:06:48.36 bitrate=N/A speed=14.1x    frame= 9978 fps=339 q=-0.0 size=N/A time=00:06:56.16 bitrate=N/A speed=14.2x    frame=10158 fps=340 q=-0.0 size=N/A time=00:07:03.67 bitrate=N/A speed=14.2x    frame=10340 fps=340 q=-0.0 size=N/A time=00:07:11.26 bitrate=N/A speed=14.2x    frame=10518 fps=340 q=-0.0 size=N/A time=00:07:18.68 bitrate=N/A speed=14.2x    frame=10706 fps=340 q=-0.0 size=N/A time=00:07:26.52 bitrate=N/A speed=14.2x    frame=10890 fps=341 q=-0.0 size=N/A time=00:07:34.20 bitrate=N/A speed=14.2x    frame=11065 fps=341 q=-0.0 size=N/A time=00:07:41.50 bitrate=N/A speed=14.2x    frame=11251 fps=341 q=-0.0 size=N/A time=00:07:49.26 bitrate=N/A speed=14.2x    frame=11434 fps=341 q=-0.0 size=N/A time=00:07:56.89 bitrate=N/A speed=14.2x    frame=11614 fps=341 q=-0.0 size=N/A time=00:08:04.40 bitrate=N/A speed=14.2x    frame=11796 fps=341 q=-0.0 size=N/A time=00:08:11.99 bitrate=N/A speed=14.2x    frame=11986 fps=342 q=-0.0 size=N/A time=00:08:19.91 bitrate=N/A speed=14.3x    frame=12168 fps=342 q=-0.0 size=N/A time=00:08:27.50 bitrate=N/A speed=14.3x    frame=12348 fps=342 q=-0.0 size=N/A time=00:08:35.01 bitrate=N/A speed=14.3x    frame=12537 fps=342 q=-0.0 size=N/A time=00:08:42.89 bitrate=N/A speed=14.3x    frame=12721 fps=343 q=-0.0 size=N/A time=00:08:50.57 bitrate=N/A speed=14.3x    frame=12911 fps=343 q=-0.0 size=N/A time=00:08:58.49 bitrate=N/A speed=14.3x    frame=13099 fps=343 q=-0.0 size=N/A time=00:09:06.33 bitrate=N/A speed=14.3x    frame=13279 fps=343 q=-0.0 size=N/A time=00:09:13.84 bitrate=N/A speed=14.3x    frame=13458 fps=343 q=-0.0 size=N/A time=00:09:21.31 bitrate=N/A speed=14.3x    frame=13639 fps=343 q=-0.0 size=N/A time=00:09:28.85 bitrate=N/A speed=14.3x    frame=13830 fps=344 q=-0.0 size=N/A time=00:09:36.82 bitrate=N/A speed=14.3x    frame=14012 fps=344 q=-0.0 size=N/A time=00:09:44.41 bitrate=N/A speed=14.3x    frame=14181 fps=344 q=-0.0 size=N/A time=00:09:51.46 bitrate=N/A speed=14.3x    frame=14366 fps=344 q=-0.0 size=N/A time=00:09:59.18 bitrate=N/A speed=14.3x    frame=14553 fps=344 q=-0.0 size=N/A time=00:10:06.98 bitrate=N/A speed=14.4x    frame=14732 fps=344 q=-0.0 size=N/A time=00:10:14.44 bitrate=N/A speed=14.4x    frame=14917 fps=344 q=-0.0 size=N/A time=00:10:22.16 bitrate=N/A speed=14.4x    frame=15101 fps=344 q=-0.0 size=N/A time=00:10:29.83 bitrate=N/A speed=14.4x    frame=15276 fps=344 q=-0.0 size=N/A time=00:10:37.13 bitrate=N/A speed=14.4x    frame=15456 fps=344 q=-0.0 size=N/A time=00:10:44.64 bitrate=N/A speed=14.4x    frame=15642 fps=345 q=-0.0 size=N/A time=00:10:52.40 bitrate=N/A speed=14.4x    frame=15826 fps=345 q=-0.0 size=N/A time=00:11:00.07 bitrate=N/A speed=14.4x    frame=16014 fps=345 q=-0.0 size=N/A time=00:11:07.91 bitrate=N/A speed=14.4x    frame=16196 fps=345 q=-0.0 size=N/A time=00:11:15.50 bitrate=N/A speed=14.4x    frame=16388 fps=345 q=-0.0 size=N/A time=00:11:23.51 bitrate=N/A speed=14.4x    frame=16569 fps=345 q=-0.0 size=N/A time=00:11:31.06 bitrate=N/A speed=14.4x    frame=16754 fps=346 q=-0.0 size=N/A time=00:11:38.78 bitrate=N/A speed=14.4x    frame=16941 fps=346 q=-0.0 size=N/A time=00:11:46.58 bitrate=N/A speed=14.4x    frame=17128 fps=346 q=-0.0 size=N/A time=00:11:54.38 bitrate=N/A speed=14.4x    frame=17315 fps=346 q=-0.0 size=N/A time=00:12:02.17 bitrate=N/A speed=14.4x    frame=17498 fps=346 q=-0.0 size=N/A time=00:12:09.81 bitrate=N/A speed=14.4x    frame=17676 fps=346 q=-0.0 size=N/A time=00:12:17.23 bitrate=N/A speed=14.4x    frame=17864 fps=346 q=-0.0 size=N/A time=00:12:25.07 bitrate=N/A speed=14.4x    frame=18049 fps=347 q=-0.0 size=N/A time=00:12:32.79 bitrate=N/A speed=14.5x    frame=18233 fps=347 q=-0.0 size=N/A time=00:12:40.46 bitrate=N/A speed=14.5x    frame=18412 fps=347 q=-0.0 size=N/A time=00:12:47.93 bitrate=N/A speed=14.5x    frame=18598 fps=347 q=-0.0 size=N/A time=00:12:55.69 bitrate=N/A speed=14.5x    frame=18787 fps=347 q=-0.0 size=N/A time=00:13:03.57 bitrate=N/A speed=14.5x    frame=18974 fps=347 q=-0.0 size=N/A time=00:13:11.37 bitrate=N/A speed=14.5x    frame=19158 fps=347 q=-0.0 size=N/A time=00:13:19.04 bitrate=N/A speed=14.5x    frame=19354 fps=347 q=-0.0 size=N/A time=00:13:27.22 bitrate=N/A speed=14.5x    frame=19533 fps=347 q=-0.0 size=N/A time=00:13:34.68 bitrate=N/A speed=14.5x    frame=19721 fps=348 q=-0.0 size=N/A time=00:13:42.53 bitrate=N/A speed=14.5x    frame=19906 fps=348 q=-0.0 size=N/A time=00:13:50.24 bitrate=N/A speed=14.5x    frame=20100 fps=348 q=-0.0 size=N/A time=00:13:58.33 bitrate=N/A speed=14.5x    frame=20284 fps=348 q=-0.0 size=N/A time=00:14:06.01 bitrate=N/A speed=14.5x    frame=20469 fps=348 q=-0.0 size=N/A time=00:14:13.72 bitrate=N/A speed=14.5x    frame=20640 fps=348 q=-0.0 size=N/A time=00:14:20.86 bitrate=N/A speed=14.5x    frame=20835 fps=348 q=-0.0 size=N/A time=00:14:28.99 bitrate=N/A speed=14.5x    frame=21021 fps=348 q=-0.0 size=N/A time=00:14:36.75 bitrate=N/A speed=14.5x    frame=21202 fps=348 q=-0.0 size=N/A time=00:14:44.30 bitrate=N/A speed=14.5x    frame=21395 fps=349 q=-0.0 size=N/A time=00:14:52.34 bitrate=N/A speed=14.5x    frame=21576 fps=349 q=-0.0 size=N/A time=00:14:59.89 bitrate=N/A speed=14.5x    frame=21764 fps=349 q=-0.0 size=N/A time=00:15:07.74 bitrate=N/A speed=14.5x    frame=21953 fps=349 q=-0.0 size=N/A time=00:15:15.62 bitrate=N/A speed=14.6x    frame=22142 fps=349 q=-0.0 size=N/A time=00:15:23.50 bitrate=N/A speed=14.6x    frame=22333 fps=349 q=-0.0 size=N/A time=00:15:31.47 bitrate=N/A speed=14.6x    frame=22518 fps=349 q=-0.0 size=N/A time=00:15:39.18 bitrate=N/A speed=14.6x    frame=22698 fps=349 q=-0.0 size=N/A time=00:15:46.69 bitrate=N/A speed=14.6x    frame=22875 fps=349 q=-0.0 size=N/A time=00:15:54.07 bitrate=N/A speed=14.6x    frame=23069 fps=349 q=-0.0 size=N/A time=00:16:02.16 bitrate=N/A speed=14.6x    frame=23250 fps=349 q=-0.0 size=N/A time=00:16:09.71 bitrate=N/A speed=14.6x    frame=23433 fps=349 q=-0.0 size=N/A time=00:16:17.35 bitrate=N/A speed=14.6x    frame=23617 fps=350 q=-0.0 size=N/A time=00:16:25.02 bitrate=N/A speed=14.6x    frame=23808 fps=350 q=-0.0 size=N/A time=00:16:32.99 bitrate=N/A speed=14.6x    frame=23994 fps=350 q=-0.0 size=N/A time=00:16:40.74 bitrate=N/A speed=14.6x    frame=24177 fps=350 q=-0.0 size=N/A time=00:16:48.38 bitrate=N/A speed=14.6x    frame=24363 fps=350 q=-0.0 size=N/A time=00:16:56.14 bitrate=N/A speed=14.6x    frame=24555 fps=350 q=-0.0 size=N/A time=00:17:04.14 bitrate=N/A speed=14.6x    frame=24739 fps=350 q=-0.0 size=N/A time=00:17:11.82 bitrate=N/A speed=14.6x    frame=24921 fps=350 q=-0.0 size=N/A time=00:17:19.41 bitrate=N/A speed=14.6x    frame=25112 fps=350 q=-0.0 size=N/A time=00:17:27.37 bitrate=N/A speed=14.6x    frame=25306 fps=350 q=-0.0 size=N/A time=00:17:35.47 bitrate=N/A speed=14.6x    frame=25490 fps=350 q=-0.0 size=N/A time=00:17:43.14 bitrate=N/A speed=14.6x    frame=25678 fps=351 q=-0.0 size=N/A time=00:17:50.98 bitrate=N/A speed=14.6x    frame=25860 fps=351 q=-0.0 size=N/A time=00:17:58.57 bitrate=N/A speed=14.6x    frame=26047 fps=351 q=-0.0 size=N/A time=00:18:06.37 bitrate=N/A speed=14.6x    frame=26231 fps=351 q=-0.0 size=N/A time=00:18:14.05 bitrate=N/A speed=14.6x    frame=26413 fps=351 q=-0.0 size=N/A time=00:18:21.64 bitrate=N/A speed=14.6x    frame=26598 fps=351 q=-0.0 size=N/A time=00:18:29.35 bitrate=N/A speed=14.6x    frame=26783 fps=351 q=-0.0 size=N/A time=00:18:37.07 bitrate=N/A speed=14.6x    frame=26967 fps=351 q=-0.0 size=N/A time=00:18:44.74 bitrate=N/A speed=14.6x    frame=27140 fps=351 q=-0.0 size=N/A time=00:18:51.96 bitrate=N/A speed=14.6x    frame=27324 fps=351 q=-0.0 size=N/A time=00:18:59.63 bitrate=N/A speed=14.6x    frame=27503 fps=351 q=-0.0 size=N/A time=00:19:07.10 bitrate=N/A speed=14.6x    frame=27681 fps=351 q=-0.0 size=N/A time=00:19:14.52 bitrate=N/A speed=14.6x    frame=27866 fps=351 q=-0.0 size=N/A time=00:19:22.24 bitrate=N/A speed=14.6x    frame=28049 fps=351 q=-0.0 size=N/A time=00:19:29.87 bitrate=N/A speed=14.6x    frame=28237 fps=351 q=-0.0 size=N/A time=00:19:37.71 bitrate=N/A speed=14.6x    frame=28419 fps=351 q=-0.0 size=N/A time=00:19:45.30 bitrate=N/A speed=14.6x    frame=28611 fps=351 q=-0.0 size=N/A time=00:19:53.31 bitrate=N/A speed=14.6x    frame=28785 fps=351 q=-0.0 size=N/A time=00:20:00.57 bitrate=N/A speed=14.6x    frame=28958 fps=351 q=-0.0 size=N/A time=00:20:07.78 bitrate=N/A speed=14.6x    frame=29135 fps=351 q=-0.0 size=N/A time=00:20:15.17 bitrate=N/A speed=14.6x    frame=29313 fps=351 q=-0.0 size=N/A time=00:20:22.59 bitrate=N/A speed=14.6x    frame=29490 fps=351 q=-0.0 size=N/A time=00:20:29.97 bitrate=N/A speed=14.6x    frame=29661 fps=351 q=-0.0 size=N/A time=00:20:37.11 bitrate=N/A speed=14.6x    frame=29841 fps=351 q=-0.0 size=N/A time=00:20:44.61 bitrate=N/A speed=14.6x    frame=30004 fps=350 q=-0.0 size=N/A time=00:20:51.41 bitrate=N/A speed=14.6x    frame=30173 fps=350 q=-0.0 size=N/A time=00:20:58.46 bitrate=N/A speed=14.6x    frame=30355 fps=350 q=-0.0 size=N/A time=00:21:06.05 bitrate=N/A speed=14.6x    frame=30540 fps=350 q=-0.0 size=N/A time=00:21:13.77 bitrate=N/A speed=14.6x    frame=30726 fps=350 q=-0.0 size=N/A time=00:21:21.53 bitrate=N/A speed=14.6x    frame=30914 fps=350 q=-0.0 size=N/A time=00:21:29.37 bitrate=N/A speed=14.6x    frame=31100 fps=351 q=-0.0 size=N/A time=00:21:37.12 bitrate=N/A speed=14.6x    frame=31282 fps=351 q=-0.0 size=N/A time=00:21:44.72 bitrate=N/A speed=14.6x    frame=31467 fps=351 q=-0.0 size=N/A time=00:21:52.43 bitrate=N/A speed=14.6x    frame=31642 fps=351 q=-0.0 size=N/A time=00:21:59.73 bitrate=N/A speed=14.6x    frame=31816 fps=351 q=-0.0 size=N/A time=00:22:06.99 bitrate=N/A speed=14.6x    frame=31994 fps=350 q=-0.0 size=N/A time=00:22:14.41 bitrate=N/A speed=14.6x    frame=32173 fps=350 q=-0.0 size=N/A time=00:22:21.92 bitrate=N/A speed=14.6x    frame=32353 fps=350 q=-0.0 size=N/A time=00:22:29.38 bitrate=N/A speed=14.6x    frame=32540 fps=350 q=-0.0 size=N/A time=00:22:37.18 bitrate=N/A speed=14.6x    frame=32692 fps=350 q=-0.0 size=N/A time=00:22:43.52 bitrate=N/A speed=14.6x    frame=32845 fps=350 q=-0.0 size=N/A time=00:22:49.91 bitrate=N/A speed=14.6x    frame=33022 fps=350 q=-0.0 size=N/A time=00:22:57.29 bitrate=N/A speed=14.6x    frame=33192 fps=350 q=-0.0 size=N/A time=00:23:04.38 bitrate=N/A speed=14.6x    frame=33357 fps=350 q=-0.0 size=N/A time=00:23:11.26 bitrate=N/A speed=14.6x    frame=33522 fps=349 q=-0.0 size=N/A time=00:23:18.14 bitrate=N/A speed=14.6x    frame=33681 fps=349 q=-0.0 size=N/A time=00:23:24.77 bitrate=N/A speed=14.6x    frame=33810 fps=349 q=-0.0 size=N/A time=00:23:30.15 bitrate=N/A speed=14.5x    frame=33947 fps=348 q=-0.0 size=N/A time=00:23:35.87 bitrate=N/A speed=14.5x    frame=34110 fps=348 q=-0.0 size=N/A time=00:23:42.67 bitrate=N/A speed=14.5x    frame=34265 fps=348 q=-0.0 size=N/A time=00:23:49.13 bitrate=N/A speed=14.5x    frame=34400 fps=347 q=-0.0 size=N/A time=00:23:54.76 bitrate=N/A speed=14.5x    frame=34564 fps=347 q=-0.0 size=N/A time=00:24:01.60 bitrate=N/A speed=14.5x    [Parsed_ssim_16 @ 000001878eb93800] SSIM Y:0.994531 (22.621024) U:0.993929 (22.167389) V:0.993636 (21.962392) All:0.994282 (22.427186)
[out#0/null @ 0000018781ab8a00] video:14903KiB audio:271276KiB subtitle:0KiB other streams:0KiB global headers:0KiB muxing overhead: unknown
frame=34683 fps=347 q=-0.0 Lsize=N/A time=00:24:06.57 bitrate=N/A speed=14.5x    
